# xmcd CD database file
#
# Track frame offsets:
#	150
#	48505
#	74442
#	99652
#	125598
#	167105
#	204140
#	246441
#	277990
#	299503
#	318557
#
# Disc length: 4507 seconds
#
# Revision: 0
# Processed by: cddbd v1.5.2PL0 Copyright (c) Steve Scherf et al.
# Submitted via: CDex 1.51
#
DISCID=ab11990b
DTITLE=John COLTRANE - Mister Day, disc 2
DYEAR=1957
DGENRE=Jazz
TTITLE0=Blue Train
TTITLE1=Pristine
TTITLE2=Russian Lullaby
TTITLE3=Milestone
TTITLE4=Manhattan
TTITLE5=Like Someone in Love
TTITLE6=So What
TTITLE7=Mr. P. C.
TTITLE8=Giant Steps
TTITLE9=Harmonique
TTITLE10=Naima
EXTD=YEAR: 1957
EXTT0=
EXTT1=
EXTT2=
EXTT3=
EXTT4=
EXTT5=
EXTT6=
EXTT7=
EXTT8=
EXTT9=
EXTT10=
PLAYORDER=
